<svg version="1.2" xmlns="http://www.w3.org/2000/svg" viewBox="0 0 1000 1000" width="1000" height="1000">
	<title>hazardest_favicon</title>
	<defs>
		<radialGradient id="g1" cx="500" cy="299" r="900" gradientUnits="userSpaceOnUse">
			<stop offset="0" stop-color="#5f00ff"/>
			<stop offset="1" stop-color="#000000"/>
		</radialGradient>
	</defs>
	<style>
		.s0 { fill: url(#g1) } 
		.s1 { fill: #ffffff } 
	</style>
	<path id="Corners" class="s0" d="m0 99c0-55.2 44.8-100 100-100h800c55.2 0 100 44.8 100 100v800c0 55.2-44.8 100-100 100h-800c-55.2 0-100-44.8-100-100z"/>
	<path id="H" class="s1" aria-label="H"  d="m286 880.5h3l1.5 1.5q0 1.5-1.5 3h-1.5q0-3-1.5-4.5 0 3-3 3-6 3-7.5 4.5 0 0 1.5 7.5-4.5 0-7.5-1.5-4.5 0-6-1.5-9-3-15-1.5-6 3-12-3-3-4.5-6-7.5-3-3-4.5-9 0-1.5-3-4.5-6-7.5-9-16.5-3-9-7.5-18-1.5-1.5-1.5-6-3-10.5-6-21-1.5-10.5-9-21-7.5 1.5-9 3 0 0-3 6-12 0-16.5-10.5h-1.5q-3 0-3-1.5-4.5-3-1.5-6 6-4.5 6-9l7.5-45q3-13.5 6-25.5 3-13.5 6-25.5l7.5-22.5q4.5-19.5 13.5-40.5 4.5-12 7.5-24 4.5-12 10.5-24 1.5-3 1.5-3 0-3-3-3 0-1.5-1.5-1.5 0 0 0 1.5-3 3-4.5 3-1.5 9-12 6 0 4.5-1.5 9-3 0-4.5 1.5-1.5 1.5-4.5 1.5-7.5-1.5-12 1.5-4.5 1.5-9 4.5-3 1.5-6 4.5-1.5 1.5-4.5 3l-10.5 4.5-36-33q4.5-12 16.5-16.5 7.5-1.5 19.5-7.5 16.5-7.5 30-13.5 15-6 30-10.5 9-3 18-6 9-3 18-6l21-49.5q1.5-4.5 7.5-13.5 7.5-16.5 15-31.5 9-15 16.5-30l49.5-85.5q4.5-10.5 10.5-18 6-9 10.5-18l48-78 13.5-22.5q3-6 6-10.5 4.5-6 9-12 3-3 3-6 0-4.5 1.5-7.5 3 1.5 6-1.5 1.5-4.5 4.5-7.5 4.5-3 7.5-6 6-3 12-1.5 12 6 21 19.5 4.5 7.5 9 16.5 6 7.5 9 15 1.5 4.5 7.5 10.5 7.5 12 15 22.5 7.5 10.5 16.5 21 3 3 4.5 4.5 1.5 1.5 4.5 4.5 4.5 1.5 7.5 4.5 3 3 6 6 0 1.5 0 3 1.5 1.5 1.5 3-1.5 7.5 0 15 1.5 7.5 4.5 15 0 3 0 7.5 1.5 3 0 7.5-7.5 0-13.5-4.5l-4.5 3-13.5 18 4.5 4.5q-3 10.5-9 13.5 0-3-1.5-3 0-1.5 0-4.5-4.5 0-4.5 4.5 0 7.5-4.5 12-4.5 3-6 10.5l-1.5 1.5q-10.5 4.5-3 13.5 1.5 6-6 6-1.5-1.5-3-1.5-1.5 1.5-1.5 3-3 3-1.5 6 3 3-1.5 6-3 3-3 6 1.5 1.5-1.5 4.5-3 3-3 4.5 0 1.5-3 3-4.5 1.5-3 7.5 0 4.5-4.5 6-4.5 0-9 4.5l6 4.5q-1.5 6-4.5 10.5-1.5 4.5-4.5 10.5 0 1.5-1.5 1.5h-3q-3 1.5-6 9-1.5 6-9 9l3 10.5q-3 6-4.5 6-1.5 0-6-3-1.5 1.5-1.5 4.5 4.5 7.5-1.5 13.5-1.5 1.5-1.5 4.5l37.5 3 48 6q10.5 1.5 19.5 4.5 9 1.5 19.5 3l28.5 9q10.5 3 16.5-6 4.5-10.5 7.5-19.5 4.5-9 7.5-18l9-15 24-52.5 28.5-61.5q6-13.5 10.5-27 4.5-13.5 10.5-25.5 4.5-10.5 7.5-21 4.5-10.5 7.5-22.5 1.5-7.5 10.5-16.5 6-1.5 13.5 3 4.5-10.5 4.5-19.5-3-12 9-16.5 7.5-7.5 15-7.5 9 0 18 0 7.5-3 10.5 7.5 3 7.5 7.5 13.5 6 6 10.5 13.5 7.5 13.5 16.5 27 10.5 12 16.5 28.5 1.5 7.5 4.5 13.5 3 6 6 13.5 3 13.5-3 21l-16.5 25.5-15 27q-1.5 0-3 1.5 0 0-1.5 0-6 3-4.5 7.5v3q0 1.5 1.5 1.5-4.5 6-6 12-1.5 6-9 9l-4.5 6-3 6q-6 4.5-1.5 12-3 4.5-6 9-3 3-3 7.5 0 4.5-3 4.5-7.5 7.5-9 13.5-7.5 1.5-9-1.5-1.5-4.5-4.5-9-1.5 0-7.5 3 0 3-1.5 6 0 1.5 0 4.5v1.5q4.5-4.5 9 0 1.5 1.5 1.5 4.5 0 1.5-1.5 1.5-4.5 3-7.5 0-3-4.5-1.5-7.5-1.5 1.5-7.5 1.5-3 4.5 0 7.5 6 4.5 3 7.5l-10.5 19.5-9-3q-1.5 3-1.5 6 1.5 3 0 6-1.5 1.5-4.5 1.5-1.5 1.5-4.5 1.5l-4.5 10.5q3 0 6 1.5 3 0 6 0 0 1.5 0 1.5 1.5 0 1.5 1.5l-1.5 1.5q0 4.5-4.5 6-3 0-4.5 3-3 9-7.5 10.5-4.5 3-4.5 9 3 3 7.5 4.5-3 3-3 6h-3q-3-3-4.5-4.5-1.5-1.5-6 0l-3 6q1.5 1.5 1.5 3l7.5 3q3 6-1.5 7.5 0 1.5-3 1.5h-4.5l-4.5 10.5-7.5 6q0 3 3 6-3 3-7.5 3-3-1.5-6 0-3 3-4.5 7.5 0 3-1.5 7.5v-1.5q-3-3-7.5 0-1.5 1.5-1.5 7.5 0 0 0 3-7.5 0-12 4.5 1.5 3 3 4.5 1.5 0 3 1.5 3-3 3-4.5 1.5-3 3-6 9 0 10.5 6 0 1.5-1.5 1.5 0 0 0 1.5v1.5q-4.5 3-6 6-1.5 3-4.5 6 3 1.5 4.5 1.5 1.5 0 3 1.5 1.5 6-4.5 9-3-3-4.5-4.5 0-3-1.5-6h-7.5q-1.5 7.5 1.5 12 4.5 3 9 6v1.5q-4.5 7.5-7.5 3l-7.5-9q-3 0-6 9 9 3 9 9 0 4.5 4.5 6l6 4.5q-6 4.5-7.5 4.5-1.5 0-6-6 0 4.5-3 4.5 1.5-1.5 0-1.5 0-1.5 1.5-3-3-1.5-3-1.5l-3 6q3 0 4.5 1.5v-1.5q7.5 6 4.5 12-4.5 4.5-6 3 1.5 0-3-4.5v-3l-7.5-3q-9 6-1.5 9 4.5 1.5 6 6 4.5 7.5-4.5 9h-3q-3 12-6 18 0-1.5-4.5-4.5-3 7.5 1.5 10.5 6 1.5 6 9-1.5 3-3 7.5 0 3-6 1.5-1.5 6 1.5 7.5 3 0 4.5 3 1.5 4.5-1.5 7.5-3 3-6 6-6 6-7.5 12-1.5 3 1.5 3 3-1.5 1.5 1.5 0 4.5 4.5 4.5-3 3-3 7.5 1.5 3-3 6v6q-1.5 3-1.5 7.5-1.5 0-1.5 1.5-3 0-4.5-3 0-4.5-4.5-4.5-3 1.5-6 0-1.5-3-4.5-4.5-1.5 0-3 0 0-1.5-3-1.5-7.5 0-10.5-1.5-7.5-4.5-15-6-7.5-1.5-13.5-7.5 0-1.5-9-4.5-7.5-3-9-3-4.5 0-7.5-1.5l-6-4.5q-7.5 0-9-4.5-1.5-6-1.5-18 4.5-6-1.5-18v-1.5q3-9 3-12 1.5-3 1.5-3 6-4.5 7.5-10.5 1.5-7.5 6-12 4.5-6 7.5-21l19.5-49.5q7.5-19.5 16.5-36 9-18 16.5-37.5l13.5-30 3-9-4.5-4.5q-10.5-4.5-10.5 4.5v4.5l-1.5 1.5h-1.5q-1.5 0-1.5 1.5 0 0-1.5 0 1.5-6 1.5-10.5 1.5-4.5 1.5-10.5-6-3-7.5-1.5-3 1.5-9 1.5-4.5-3-10.5-3-4.5 0-9-1.5 0-4.5-4.5-7.5-3 0-3 1.5 0 1.5-1.5 3-10.5 3-16.5-3-3-4.5-6-1.5-10.5 4.5-16.5-3-1.5-1.5-6-1.5l-9 6q-4.5 4.5-7.5-1.5 0-4.5-3-4.5-3 0-4.5 1.5-1.5 0-4.5 0h-1.5q-1.5 3-3 6 0 3-4.5 1.5-3-1.5-3-3 0-3-1.5-6h-10.5l-7.5 9q-4.5 0-7.5 1.5v7.5q-1.5 4.5-6 6-3 0-4.5 4.5-3 9-6 13.5-4.5 7.5 1.5 13.5l-7.5 10.5q0 1.5 0 3 1.5 1.5 1.5 4.5-4.5 0-4.5 0-7.5-3-7.5 3 0 7.5-7.5 12-1.5 0-1.5 1.5v3q-1.5 7.5-4.5 12-3 4.5-3 12 0 1.5-4.5 6-4.5 6-1.5 13.5l-1.5 1.5q0 1.5-1.5 1.5 0 0 0 1.5l-1.5-1.5q-3-3-4.5-1.5-1.5 1.5-1.5 4.5 3 6 3 7.5l-9 18q0 3-3 3l-4.5 6q-1.5 1.5 4.5 7.5 1.5 1.5 1.5 4.5 0 1.5-3 1.5-10.5 6-7.5 18-3 0-6 3-4.5 3 0 9 3 6-1.5 9-3 3-6 9-1.5 4.5-3 7.5-1.5 3-3 7.5 0 4.5 3 7.5l-13.5 25.5q0 3 3 12-1.5 3-3 4.5-1.5 0-3 1.5-3 6-3 7.5l-4.5 15q0 6-1.5 10.5-1.5 3-3 6-4.5 12-12 13.5-4.5 3-4.5 7.5zm298.5-132q-9 3-4.5 13.5-1.5 0-3 0-1.5-1.5-4.5-1.5 0 6 0 6 3 4.5 4.5 9 1.5 3 3 9 4.5-3 4.5-12 0-3-1.5-3-3-1.5-3-7.5h7.5q6-15 7.5-22.5 0-3-1.5-4.5l-1.5 1.5q-1.5 3-3 6 0 3-4.5 6zm231-354l-4.5 10.5-10.5 4.5q1.5 3 1.5 6 1.5 1.5 4.5 3 3-6 6-10.5 4.5-6 4.5-13.5zm-123 241.5l-6-7.5q3-3 3-3 3 0 4.5 0 1.5-1.5 4.5-1.5 4.5 3 1.5 9-6 3-7.5 3zm7.5-48q-7.5 0-7.5 4.5 0 3-1.5 6 9 1.5 10.5-1.5 1.5-3 1.5-10.5-3 3-3 1.5zm16.5-46.5q-3 10.5 7.5 9 1.5-4.5 1.5-10.5-3 0-6 1.5-1.5 0-3 0zm73.5-63l1.5 1.5q-3 4.5-6 7.5-1.5 3-1.5 9 0 0-7.5 7.5 3-7.5 1.5-7.5 3-4.5 4.5-9 3-6 7.5-9zm-234 147l-1.5 1.5q-1.5-10.5 7.5-16.5 1.5 3 1.5 6-3 9-7.5 9zm90 132l-9-4.5q3-3 4.5-4.5 3-3 7.5 0 3 6-3 9zm147-307.5q4.5 0 3-1.5-1.5-1.5-1.5-3 6-1.5 6-4.5-3 0-4.5 1.5-1.5 0-4.5 0l-7.5 12q3 1.5 4.5-1.5 1.5-3 4.5-3zm-223.5 138l3-12 6 4.5q-1.5 3-3 6 0 3-6 1.5zm132 33l4.5-10.5q-1.5 3 0 3 3 0 4.5 3 0 1.5-1.5 3 0 1.5 0 4.5zm-84-130.5q-1.5-3 1.5-9 1.5-1.5 4.5-1.5 0 1.5 0 3 1.5 0 1.5 1.5-3 6-7.5 6zm112.5 48q1.5-1.5 3-1.5 1.5 0 1.5-3 0-4.5-4.5-4.5-4.5 4.5-3 10.5 0-1.5 3-1.5zm22.5 3q1.5 0 1.5 0 1.5-1.5 3-1.5 0 1.5 0 3 1.5 0 1.5 1.5-4.5 7.5-7.5 7.5 0-3 0-4.5 1.5-3 1.5-6zm-12-48v7.5q3 0 4.5 1.5 3 0 6-1.5v-1.5q-3 0-4.5-4.5-1.5-4.5-6-1.5zm-198 166.5l-4.5 10.5q0 1.5-3 1.5-1.5-3-1.5-3 3-7.5 9-9zm37.5-96q4.5 0 6 1.5 3 4.5-3 7.5-3 0-3 0 0-1.5 0-9zm37.5-73.5l-3 10.5q-1.5 1.5-1.5 1.5h-1.5q-1.5 0-1.5-3 1.5-3 1.5-6 1.5-3 6-3zm102 115.5h-1.5q1.5 0 1.5-1.5 1.5-1.5 3-1.5 1.5-1.5 3-4.5 0 6-1.5 9 0 4.5-6 4.5 1.5-3 1.5-6zm-67.5-201q3-3 3-6 4.5-4.5 6-3 1.5 3 1.5 3l-3 4.5q-3 0-7.5 1.5zm19.5-15q-7.5 0-4.5-4.5 3-6 6-1.5 1.5 3-1.5 6zm-483 193.5l-9 6q0-7.5 1.5-9 1.5 0 7.5 3zm507-16.5h-4.5v3q0 1.5 1.5 1.5 3 6 6 0 1.5-1.5 0-3 0-1.5-3-1.5zm96-145.5l-1.5 1.5v3q4.5 3 10.5-3-3 0-4.5 0-1.5-1.5-4.5-1.5zm-237 205.5v9l-6-3q0-3 3-6zm171-28.5q1.5-1.5 0-3 0-1.5 1.5-4.5h1.5q1.5 0 1.5 0 0-1.5 1.5-1.5 4.5 0 0 4.5-1.5 1.5-3 4.5 0 1.5-3 0zm-21-13.5l7.5-3q0-4.5-4.5-4.5-3 0-3 3 0 0 0 4.5zm57-97.5q-6-7.5-10.5-4.5 4.5 4.5 6 6 1.5 0 4.5-1.5zm6-37.5l3 3q1.5-3 1.5-3 1.5-3-1.5-6-3 0-3 1.5-3 3 0 4.5zm18-16.5q-6-3-6 3 0 0 4.5 4.5 1.5-3 1.5-7.5zm-136.5-1.5q0 6-3 6-1.5 0-4.5-3 1.5-3 7.5-3zm63 210l-7.5 7.5q1.5-7.5 1.5-9 1.5-1.5 6 1.5zm-81-189l4.5-9q3 7.5 1.5 9 0 0-6 0zm-136.5 93q-4.5 4.5-10.5 3 3-6 10.5-3zm-66 12l-4.5 3q-1.5-1.5-1.5-3v-1.5l4.5-3q1.5 0 1.5 1.5zm250.5-211.5l9 4.5-7.5 3q0-4.5-1.5-7.5zm-51 468l3-3h1.5v3q0 3-3 6-1.5-1.5-1.5-6zm-469.5 4.5l4.5 6q-1.5 1.5-3 1.5-6 0-3-3 0-1.5 0-1.5 1.5-1.5 1.5-3zm528-208.5l-6-7.5q0 7.5 0 9 1.5 0 6-1.5zm24-54l-6 4.5q6 1.5 7.5 1.5 1.5 0-1.5-6zm39-3l-3 10.5q-3-10.5 3-10.5zm-259.5-142.5l-1.5-1.5-3 3v3h4.5zm-279 136.5q-3-3-3-3-3 0-3 3 1.5 3 1.5 3 1.5 0 4.5-3zm-69 267q3-3 4.5-3 0-1.5 3 1.5-3 3-4.5 3-1.5 0-3-1.5zm43.5 31.5l1.5 1.5q3 3-4.5 3l-1.5-3q1.5 0 1.5 0 1.5-1.5 3-1.5zm330-301.5v1.5q-1.5 1.5-4.5 1.5-1.5 0-3-1.5l1.5-1.5zm-223.5 183q-3 1.5-4.5 1.5v4.5q3-1.5 3-1.5 1.5-1.5 1.5-4.5zm36-276q4.5-3 3-6-4.5 3-3 6zm379.5-154.5v6q-3 1.5-3 1.5-1.5-3-1.5-3 1.5-1.5 1.5-1.5 1.5 0 3-3zm-532.5 541.5q-1.5 0-1.5 1.5 0 0-1.5 0-4.5 0-1.5-4.5h1.5q0 0 3 3zm579-379.5l1.5 1.5q1.5 0 1.5 0 0-1.5 1.5-1.5 0-1.5-1.5-3 0-1.5-1.5 0-1.5 1.5-1.5 3zm-105 235.5v-6q-3 3-3 3-3 3 1.5 3zm-199.5-142.5q1.5 0 3 1.5-1.5 1.5-1.5 1.5-4.5 0-4.5-1.5 0-1.5 3-1.5zm82.5-9q1.5-1.5 4.5-1.5h4.5q-4.5 3-9 1.5zm31.5-1.5h-7.5q3-4.5 7.5 0zm3 52.5q1.5 3 1.5 3v1.5q-1.5 3-1.5 3l-1.5-1.5q0-1.5 0-1.5 1.5-1.5 1.5-4.5zm151.5 37.5h-3v-3q1.5-1.5 3-1.5zm-33-120l1.5-1.5-1.5-1.5q-3 1.5-3 1.5 1.5 3 1.5 3 1.5 0 1.5-1.5zm82.5 21q-3 1.5-3 1.5 0-1.5-1.5-1.5 0-1.5 0-3h1.5q0 0 3 3zm-31.5 45q0-3 0-3 0-1.5 1.5-1.5 1.5 3 1.5 3 0 1.5-3 1.5zm-40.5 100.5q3 1.5 3 1.5-1.5 0-1.5 3-1.5 0-3-1.5 1.5-1.5 1.5-3zm-391.5 15l1.5-1.5q-1.5-1.5-1.5-1.5h-1.5q-1.5 0-1.5 3zm270-156h6q-1.5 4.5-6 0zm82.5 202.5l-1.5 1.5q-1.5-1.5-1.5-4.5h1.5q1.5 3 1.5 3zm-513 96v7.5q-3-4.5 0-7.5zm169.5 0h3v3q-1.5 1.5-1.5 1.5 0-1.5-1.5-1.5 0-1.5 0-3zm204-477h-1.5q-3 3-3 3 3 1.5 3 1.5 0-3 1.5-4.5zm-325.5 198h3l1.5-1.5q-1.5-1.5-3-1.5-1.5 1.5-1.5 3zm-42 307.5h-3l-1.5-1.5q0-1.5 3-1.5 0 1.5 1.5 3zm474-73.5q0-1.5-1.5-3l-1.5 1.5q0 1.5 1.5 3 0-1.5 1.5-1.5zm-168-673.5q-4.5 4.5-6-3 3 3 6 3zm-271.5 450q-1.5 0-1.5 1.5 0 1.5 1.5 1.5 1.5 0 1.5-1.5 0-1.5-1.5-1.5zm277.5-16.5v-1.5h6q-1.5 1.5-6 1.5zm-169.5 156l1.5-1.5q-1.5 0-1.5 0 0-1.5-1.5-1.5l-1.5 1.5q1.5 0 1.5 1.5 0 0 1.5 0zm232.5 0h-1.5q0-1.5 0-1.5 1.5-1.5 1.5-3h1.5q0 1.5-1.5 3 0 0 0 1.5zm111-234q-1.5 0-3-1.5 0-1.5-1.5-1.5h3q1.5 1.5 1.5 3zm57 231h1.5q0 3-1.5 3-1.5 0-1.5-1.5zm42-195q-1.5-1.5-1.5-1.5l-1.5 1.5q0 1.5 1.5 3 0-1.5 1.5-3zm-441-45v-1.5q-1.5-1.5-1.5-1.5l-1.5 1.5q1.5 1.5 3 1.5zm355.5 205.5v-1.5q-1.5 0-3 1.5 1.5 1.5 1.5 1.5 1.5-1.5 1.5-1.5zm-58.5 64.5h3l-3-3zm-421.5-142.5l1.5-1.5v1.5q0 0-3 3v-1.5q1.5 0 1.5-1.5zm612-180h1.5v-1.5h-3zm-393-73.5v3q1.5-1.5 1.5-1.5 0-1.5-1.5-1.5zm-217.5 252h6q-6 0-6 0zm637.5-204h-3v1.5q1.5 0 3-1.5zm-87 136.5l-1.5-1.5q0 1.5-1.5 1.5l1.5 1.5q0-1.5 1.5-1.5zm-75 49.5v-4.5q-1.5 1.5-1.5 1.5 0 1.5 0 1.5 1.5 0 1.5 1.5zm148.5-172.5h-1.5-1.5q0 1.5 1.5 1.5 0-1.5 1.5-1.5zm-331.5 111h-1.5v1.5h1.5zm-276 282v-1.5h1.5v1.5zm522-331.5v-1.5h-3q1.5 0 1.5 1.5 0 0 1.5 0zm-49.5-36h-1.5v-1.5h1.5zm57 181.5l1.5 1.5v-1.5zm-361.5-205.5h1.5q-1.5-1.5-1.5-1.5zm-76.5 168h-1.5v3q0-1.5 1.5-3zm384-7.5v-1.5h-1.5zm-34.5 261h1.5v-1.5zm138-315l-1.5 1.5v-1.5zm-130.5 198v-1.5h-1.5zm13.5-291v1.5l-1.5-1.5zm-345 460.5h1.5l-1.5 1.5zm267-586.5h1.5l-1.5 1.5zm178.5 265.5h1.5v-1.5q-1.5 1.5-1.5 1.5zm-375 103.5h-1.5zm133.5-133.5h1.5v1.5zm-136.5 133.5v1.5zm183-30h1.5z"/>
</svg>